<svg width="17" height="16" viewBox="0 0 17 16" fill="none" xmlns="http://www.w3.org/2000/svg">
<g id="phone">
<path id="Vector" d="M14.5755 12.5169C14.5755 12.5169 13.8031 13.2756 13.6138 13.498C13.3054 13.8271 12.9421 13.9825 12.4658 13.9825C12.42 13.9825 12.3712 13.9825 12.3254 13.9794C11.4186 13.9216 10.5759 13.5681 9.94394 13.2665C8.21587 12.4316 6.69846 11.2464 5.43752 9.74427C4.3964 8.49199 3.70028 7.33417 3.23926 6.09104C2.95532 5.33236 2.85151 4.74127 2.89731 4.18368C2.92784 3.8272 3.06523 3.53165 3.31864 3.27876L4.35976 2.23977C4.50936 2.09961 4.66813 2.02344 4.82384 2.02344C5.01618 2.02344 5.17189 2.13922 5.26959 2.23672C5.27265 2.23977 5.2757 2.24281 5.27875 2.24586C5.46499 2.41953 5.64207 2.5993 5.82832 2.79125C5.92296 2.88876 6.02066 2.98626 6.11836 3.0868L6.95187 3.91861C7.2755 4.24158 7.2755 4.54017 6.95187 4.86314C6.86333 4.9515 6.77784 5.03986 6.6893 5.12517C6.43284 5.38721 6.6343 5.18615 6.36868 5.42381C6.36257 5.4299 6.35647 5.43295 6.35341 5.43904C6.09084 5.70108 6.1397 5.95702 6.19465 6.13069C6.1977 6.13983 6.20076 6.14897 6.20381 6.15811C6.42058 6.68218 6.7259 7.17577 7.18997 7.76382L7.19303 7.76687C8.03569 8.80281 8.92415 9.61024 9.90421 10.2288C10.0294 10.308 10.1576 10.372 10.2797 10.4329C10.3897 10.4877 10.4935 10.5395 10.582 10.5944C10.5942 10.6005 10.6064 10.6096 10.6186 10.6157C10.7224 10.6675 10.8201 10.6919 10.9209 10.6919C11.1743 10.6919 11.3331 10.5334 11.385 10.4817L11.9834 9.88442C12.0872 9.78083 12.2521 9.6559 12.4445 9.6559C12.6337 9.6559 12.7895 9.77473 12.8841 9.87833C12.8872 9.88138 12.8872 9.88137 12.8902 9.88442L14.5725 11.5633C14.887 11.874 14.5755 12.5169 14.5755 12.5169Z" stroke="#878585" stroke-linecap="round" stroke-linejoin="round"/>
</g>
</svg>
